<svg version="1.1" viewBox="0.0 0.0 360.8241469816273 205.03937007874015" fill="none" stroke="none" stroke-linecap="square" stroke-miterlimit="10" xmlns:xlink="http://www.w3.org/1999/xlink" xmlns="http://www.w3.org/2000/svg"><clipPath id="p.0"><path d="m0 0l360.82416 0l0 205.03937l-360.82416 0l0 -205.03937z" clip-rule="nonzero"/></clipPath><g clip-path="url(#p.0)"><path fill="#000000" fill-opacity="0.0" d="m0 0l360.82416 0l0 205.03937l-360.82416 0z" fill-rule="evenodd"/><path fill="#000000" fill-opacity="0.0" d="m0 0l360.0 0l0 202.92914l-360.0 0z" fill-rule="evenodd"/><path fill="#000000" d="m35.15625 86.44062q-10.640625 0 -17.046875 -4.03125q-6.390625 -4.046875 -6.390625 -12.375q0 -4.390625 1.515625 -6.703125q1.53125 -2.328125 4.484375 -2.328125q2.15625 0 3.515625 1.125q1.359375 1.109375 1.359375 2.875q0 1.59375 -0.234375 2.796875q0 0.3125 -0.125 1.125q-0.109375 0.796875 -0.109375 1.671875q0 3.609375 3.640625 5.375q3.640625 1.75 10.1875 1.75q6.8125 0 10.640625 -2.4375q3.84375 -2.4375 3.84375 -6.84375q0 -2.71875 -1.765625 -4.671875q-1.75 -1.96875 -4.390625 -3.28125q-2.640625 -1.328125 -7.4375 -3.25q-6.15625 -2.390625 -10.046875 -4.546875q-3.875 -2.171875 -6.640625 -5.890625q-2.75 -3.71875 -2.75 -9.234375q0 -5.765625 3.078125 -10.234375q3.078125 -4.484375 8.875 -6.96875q5.796875 -2.484375 13.640625 -2.484375q5.84375 0 10.71875 1.71875q4.875 1.71875 7.796875 5.25q2.921875 3.515625 2.921875 8.640625q0 5.03125 -1.515625 7.59375q-1.515625 2.5625 -4.484375 2.5625q-2.078125 0 -3.484375 -1.28125q-1.390625 -1.28125 -1.390625 -3.046875q0 -1.515625 0.234375 -2.796875q0.25 -2.40625 0.25 -3.03125q0 -3.375 -3.28125 -5.125q-3.28125 -1.765625 -8.171875 -1.765625q-6.875 0 -10.515625 2.53125q-3.640625 2.515625 -3.640625 7.078125q0 3.03125 1.875 5.203125q1.890625 2.15625 4.6875 3.59375q2.796875 1.4375 7.84375 3.4375q6.078125 2.484375 9.75 4.484375q3.6875 2.0 6.28125 5.4375q2.609375 3.4375 2.609375 8.484375q0 9.4375 -7.171875 14.515625q-7.15625 5.078125 -19.15625 5.078125zm68.79932 -18.484375q1.046875 0 1.640625 0.96875q0.609375 0.953125 0.609375 2.640625q0 3.1875 -1.53125 4.953125q-2.953125 3.59375 -8.359375 6.640625q-5.390625 3.046875 -11.5625 3.046875q-8.390625 0 -13.03125 -4.5625q-4.640625 -4.5625 -4.640625 -12.484375q0 -5.515625 2.3125 -10.28125q2.328125 -4.765625 6.4375 -7.5625q4.125 -2.796875 9.328125 -2.796875q4.640625 0 7.4375 2.765625q2.796875 2.75 2.796875 7.46875q0 5.53125 -3.953125 9.5q-3.953125 3.953125 -13.40625 6.265625q2.0 3.6875 7.609375 3.6875q3.59375 0 8.1875 -2.515625q4.609375 -2.53125 7.96875 -6.609375q0.953125 -1.125 2.15625 -1.125zm-20.15625 -11.59375q-2.953125 0 -5.0 3.4375q-2.046875 3.4375 -2.046875 8.3125l0 0.171875q4.734375 -1.125 7.453125 -3.359375q2.71875 -2.25 2.71875 -5.203125q0 -1.515625 -0.84375 -2.4375q-0.84375 -0.921875 -2.28125 -0.921875zm21.596222 29.84375q-3.03125 0 -4.28125 -3.203125q-1.234375 -3.203125 -1.234375 -10.25q0 -10.390625 2.953125 -19.75q0.734375 -2.328125 2.359375 -3.40625q1.640625 -1.078125 4.609375 -1.078125q1.59375 0 2.234375 0.40625q0.640625 0.390625 0.640625 1.515625q0 1.28125 -1.203125 5.765625q-0.796875 3.1875 -1.28125 5.546875q-0.46875 2.359375 -0.796875 5.890625q2.171875 -6.25 5.171875 -10.5625q3.0 -4.328125 6.15625 -6.4375q3.15625 -2.125 5.953125 -2.125q2.796875 0 3.953125 1.28125q1.171875 1.28125 1.171875 3.921875q0 2.5625 -1.515625 9.28125q-0.640625 2.875 -0.890625 4.3125q4.0 -9.828125 8.875 -14.3125q4.890625 -4.484375 9.125 -4.484375q5.203125 0 5.203125 5.203125q0 3.125 -1.765625 11.28125q-1.515625 6.953125 -1.515625 9.203125q0 3.1875 2.328125 3.1875q1.59375 0 3.796875 -1.953125q2.203125 -1.953125 5.875 -6.359375q0.96875 -1.125 2.15625 -1.125q1.046875 0 1.640625 0.96875q0.609375 0.953125 0.609375 2.640625q0 3.1875 -1.53125 4.953125q-3.4375 4.234375 -7.40625 6.96875q-3.953125 2.71875 -8.984375 2.71875q-4.078125 0 -6.15625 -2.359375q-2.078125 -2.359375 -2.078125 -6.84375q0 -2.25 1.109375 -8.0q1.046875 -5.046875 1.046875 -6.96875q0 -1.28125 -0.890625 -1.28125q-1.03125 0 -2.953125 2.6875q-1.921875 2.671875 -3.84375 7.078125q-1.921875 4.40625 -3.109375 9.28125q-0.890625 3.84375 -2.046875 5.125q-1.15625 1.28125 -3.71875 1.28125q-2.640625 0 -3.96875 -2.515625q-1.3125 -2.53125 -1.3125 -6.125q0 -3.046875 0.796875 -8.8125q0.640625 -5.109375 0.640625 -6.71875q0 -1.28125 -0.875 -1.28125q-1.203125 0 -3.046875 2.890625q-1.828125 2.875 -3.5625 7.359375q-1.71875 4.484375 -2.75 8.796875q-0.890625 3.765625 -2.046875 5.09375q-1.15625 1.3125 -3.640625 1.3125zm63.69182 0q-4.96875 0 -7.9375 -3.59375q-2.953125 -3.609375 -2.953125 -9.453125q0 -6.40625 2.953125 -12.125q2.96875 -5.71875 7.890625 -9.1875q4.921875 -3.484375 10.4375 -3.484375q1.765625 0 2.359375 0.6875q0.609375 0.671875 1.0 2.4375q1.6875 -0.328125 3.515625 -0.328125q3.921875 0 3.921875 2.796875q0 1.6875 -1.1875 8.0q-1.84375 9.203125 -1.84375 12.796875q0 1.203125 0.59375 1.921875q0.609375 0.71875 1.5625 0.71875q1.515625 0 3.671875 -1.953125q2.171875 -1.953125 5.84375 -6.359375q0.96875 -1.125 2.171875 -1.125q1.03125 0 1.625 0.96875q0.609375 0.953125 0.609375 2.640625q0 3.1875 -1.515625 4.953125q-3.28125 4.078125 -6.96875 6.890625q-3.671875 2.796875 -7.125 2.796875q-2.625 0 -4.828125 -1.796875q-2.203125 -1.8125 -3.328125 -4.921875q-4.15625 6.71875 -10.46875 6.71875zm2.875 -8.09375q1.75 0 3.34375 -2.078125q1.609375 -2.078125 2.328125 -5.515625l2.96875 -14.71875q-3.359375 0.078125 -6.203125 2.515625q-2.84375 2.4375 -4.53125 6.4375q-1.671875 4.0 -1.671875 8.484375q0 2.484375 1.0 3.6875q1.0 1.1875 2.765625 1.1875zm30.553085 8.09375q-3.03125 0 -4.28125 -3.203125q-1.234375 -3.203125 -1.234375 -10.25q0 -10.390625 2.953125 -19.75q0.734375 -2.328125 2.359375 -3.40625q1.640625 -1.078125 4.609375 -1.078125q1.59375 0 2.234375 0.40625q0.640625 0.390625 0.640625 1.515625q0 1.28125 -1.203125 5.765625q-0.796875 3.1875 -1.28125 5.59375q-0.46875 2.40625 -0.796875 5.921875q2.640625 -6.875 5.921875 -11.1875q3.28125 -4.328125 6.4375 -6.171875q3.171875 -1.84375 5.8125 -1.84375q5.1875 0 5.1875 5.203125q0 3.125 -1.75 11.28125q-1.53125 6.953125 -1.53125 9.203125q0 3.1875 2.328125 3.1875q1.59375 0 3.796875 -1.953125q2.203125 -1.953125 5.875 -6.359375q0.96875 -1.125 2.171875 -1.125q1.03125 0 1.625 0.96875q0.609375 0.953125 0.609375 2.640625q0 3.1875 -1.515625 4.953125q-3.4375 4.234375 -7.40625 6.96875q-3.953125 2.71875 -9.0 2.71875q-4.078125 0 -6.15625 -2.359375q-2.078125 -2.359375 -2.078125 -6.84375q0 -2.25 1.109375 -8.0q1.046875 -5.046875 1.046875 -6.96875q0 -1.28125 -0.875 -1.28125q-1.046875 0 -2.9375 2.6875q-1.875 2.671875 -3.828125 7.078125q-1.953125 4.40625 -3.15625 9.28125q-0.890625 3.765625 -2.046875 5.09375q-1.15625 1.3125 -3.640625 1.3125zm69.67996 -18.25q1.046875 0 1.640625 0.96875q0.609375 0.953125 0.609375 2.640625q0 3.1875 -1.53125 4.953125q-3.4375 4.234375 -7.515625 6.96875q-4.078125 2.71875 -9.359375 2.71875q-16.3125 0 -16.3125 -22.96875q0 -3.515625 0.234375 -7.125l-3.125 0q-2.390625 0 -3.234375 -0.875q-0.84375 -0.875 -0.84375 -2.796875q0 -4.484375 3.609375 -4.484375l4.546875 0q1.359375 -8.796875 4.15625 -16.078125q2.8125 -7.28125 6.765625 -11.59375q3.96875 -4.328125 8.53125 -4.328125q3.359375 0 5.265625 2.96875q1.921875 2.953125 1.921875 7.4375q0 12.390625 -10.390625 21.59375l8.953125 0q1.28125 0 1.84375 0.5625q0.5625 0.5625 0.5625 2.078125q0 5.515625 -9.046875 5.515625l-9.75 0q-0.171875 4.0 -0.171875 6.25q0 8.3125 1.953125 11.671875q1.96875 3.359375 6.21875 3.359375q3.4375 0 6.078125 -2.078125q2.640625 -2.078125 6.234375 -6.234375q0.953125 -1.125 2.15625 -1.125zm-14.0 -44.3125q-1.203125 0 -2.6875 3.0q-1.46875 3.0 -2.796875 8.328125q-1.3125 5.3125 -2.1875 11.78125q4.71875 -4.078125 7.078125 -9.15625q2.359375 -5.078125 2.359375 -9.234375q0 -4.71875 -1.765625 -4.71875zm20.236847 19.59375q-3.359375 0 -5.046875 -1.5625q-1.671875 -1.5625 -1.671875 -4.359375q0 -2.796875 2.203125 -4.671875q2.203125 -1.890625 5.484375 -1.890625q2.953125 0 4.796875 1.453125q1.84375 1.4375 1.84375 4.078125q0 3.203125 -2.078125 5.078125q-2.078125 1.875 -5.53125 1.875zm-0.625 42.96875q-5.203125 0 -7.5625 -3.671875q-2.359375 -3.6875 -2.359375 -9.78125q0 -3.59375 0.90625 -9.234375q0.921875 -5.640625 2.375 -10.515625q0.71875 -2.5625 1.90625 -3.515625q1.203125 -0.96875 3.84375 -0.96875q4.078125 0 4.078125 2.71875q0 2.0 -1.515625 9.28125q-1.921875 8.796875 -1.921875 11.921875q0 2.40625 0.640625 3.6875q0.640625 1.265625 2.15625 1.265625q1.453125 0 3.609375 -2.0q2.15625 -2.0 5.75 -6.3125q0.96875 -1.125 2.171875 -1.125q1.03125 0 1.625 0.96875q0.609375 0.953125 0.609375 2.640625q0 3.1875 -1.515625 4.953125q-7.921875 9.6875 -14.796875 9.6875zm25.117493 0q-7.84375 0 -12.203125 -4.4375q-4.359375 -4.453125 -4.359375 -11.734375q0 -6.46875 2.5625 -11.34375q2.5625 -4.890625 6.640625 -7.53125q4.078125 -2.640625 8.546875 -2.640625q4.40625 0 6.84375 2.609375q2.4375 2.59375 2.4375 6.671875q0 3.359375 -1.484375 5.6875q-1.46875 2.3125 -3.875 2.3125q-1.515625 0 -2.4375 -0.71875q-0.921875 -0.71875 -0.921875 -2.0q0 -0.5625 0.15625 -1.28125q0.171875 -0.71875 0.25 -1.046875q0.40625 -1.1875 0.40625 -2.234375q0 -1.03125 -0.53125 -1.59375q-0.515625 -0.5625 -1.46875 -0.5625q-1.84375 0 -3.453125 1.640625q-1.59375 1.640625 -2.5625 4.4375q-0.953125 2.796875 -0.953125 6.15625q0 9.28125 8.078125 9.28125q3.28125 0 7.078125 -2.1875q3.8125 -2.203125 7.484375 -6.609375q0.953125 -1.125 2.15625 -1.125q1.046875 0 1.640625 0.96875q0.609375 0.953125 0.609375 2.640625q0 3.03125 -1.53125 4.953125q-3.75 4.640625 -9.0 7.171875q-5.234375 2.515625 -10.109375 2.515625zm29.033722 1.75q-4.15625 0 -6.359375 -1.921875q-2.203125 -1.921875 -2.203125 -4.3125q0 -2.078125 1.515625 -3.59375q1.53125 -1.53125 4.484375 -1.53125q1.046875 0 2.4375 0.203125q1.40625 0.203125 2.125 0.28125q-0.078125 -2.078125 -0.921875 -3.921875q-0.84375 -1.84375 -2.125 -3.5625q-1.265625 -1.71875 -2.390625 -3.0q-2.484375 4.71875 -4.921875 7.84375q-2.4375 3.125 -5.3125 5.921875q-1.453125 1.4375 -3.046875 1.4375q-1.28125 0 -2.078125 -0.921875q-0.796875 -0.921875 -0.796875 -2.28125q0 -1.59375 1.109375 -2.953125l1.046875 -1.28125q4.40625 -5.4375 6.640625 -8.96875q1.4375 -2.3125 2.90625 -5.515625q1.484375 -3.203125 3.890625 -8.71875q1.515625 -3.515625 6.328125 -3.515625q2.234375 0 3.109375 0.40625q0.890625 0.390625 0.890625 1.265625q0 0.484375 -0.328125 1.53125q-0.3125 1.03125 -0.875 2.078125q-1.4375 2.875 -1.4375 4.875q0 1.203125 0.828125 2.640625q0.84375 1.4375 2.609375 3.59375q2.5625 3.359375 3.875 5.71875q1.328125 2.359375 1.328125 5.171875q0 3.359375 -1.5625 6.359375q-1.5625 3.0 -4.375 4.828125q-2.796875 1.84375 -6.390625 1.84375z" fill-rule="nonzero"/><path fill="#000000" d="m73.640625 157.48749q-5.125 7.828125 -12.40625 13.828125l6.96875 7.6875q1.84375 1.921875 1.84375 4.0q0 2.0 -1.609375 3.3125q-1.59375 1.328125 -4.234375 1.328125q-3.6875 0 -5.609375 -2.25l-6.71875 -7.90625q-9.4375 4.71875 -18.078125 4.71875q-6.390625 0 -11.203125 -2.0q-4.796875 -2.0 -7.40625 -5.515625q-2.59375 -3.53125 -2.59375 -7.84375q0 -5.84375 3.640625 -10.921875q3.640625 -5.078125 11.890625 -10.046875q-4.640625 -8.484375 -4.640625 -14.953125q0 -5.765625 2.390625 -10.15625q2.40625 -4.40625 6.6875 -6.796875q4.28125 -2.40625 9.796875 -2.40625q7.046875 0 10.921875 4.046875q3.875 4.03125 3.875 11.0625q0 5.84375 -3.40625 11.015625q-3.390625 5.15625 -12.03125 10.515625q5.125 6.953125 13.515625 16.390625q5.28125 -4.71875 10.484375 -11.921875q0.875 -1.28125 2.078125 -1.796875q1.203125 -0.515625 2.96875 -0.515625q4.640625 0 4.640625 2.640625q0 1.671875 -1.765625 4.484375zm-31.84375 -37.53125q-3.75 0 -5.921875 2.84375q-2.15625 2.84375 -2.15625 7.078125q0 5.046875 3.359375 11.046875q6.234375 -3.6875 8.46875 -7.125q2.25 -3.4375 2.25 -7.515625q0 -2.96875 -1.515625 -4.640625q-1.515625 -1.6875 -4.484375 -1.6875zm-7.515625 53.4375q6.234375 0 11.921875 -2.71875q-8.484375 -10.15625 -13.359375 -17.359375q-9.046875 5.921875 -9.046875 12.328125q0 3.671875 2.796875 5.71875q2.8125 2.03125 7.6875 2.03125z" fill-rule="nonzero"/><path fill="#000000" d="m142.8893 163.98749l-10.96875 0q-0.15625 2.578125 -0.859375 4.421875q-0.703125 1.828125 -1.921875 3.0q-1.203125 1.171875 -2.921875 1.71875q-1.71875 0.546875 -3.875 0.546875q-1.59375 0 -2.90625 -0.375q-1.3125 -0.375 -2.359375 -1.15625q-0.984375 -0.703125 -1.75 -1.75q-0.75 -1.0625 -1.296875 -2.421875q-0.78125 -2.0 -1.15625 -4.671875q-0.375 -2.671875 -0.375 -6.078125l0 -7.734375q0 -2.5 0.234375 -4.65625q0.234375 -2.171875 0.75 -3.96875q0.65625 -2.3125 1.765625 -4.046875q1.125 -1.734375 2.71875 -2.671875q0.9375 -0.546875 2.046875 -0.8125q1.125 -0.28125 2.40625 -0.28125q2.421875 0 4.15625 0.640625q1.75 0.640625 2.921875 1.890625q1.125 1.296875 1.734375 3.21875q0.609375 1.90625 0.765625 4.4375l10.9375 0q-0.390625 -4.453125 -1.875 -8.0q-1.484375 -3.5625 -4.0625 -6.015625q-2.578125 -2.46875 -6.234375 -3.796875q-3.65625 -1.328125 -8.34375 -1.328125q-3.15625 0 -5.921875 0.8125q-2.75 0.796875 -5.046875 2.28125q-2.578125 1.75 -4.609375 4.296875q-2.03125 2.53125 -3.28125 5.78125q-1.09375 2.65625 -1.640625 5.765625q-0.546875 3.09375 -0.546875 6.53125l0 7.65625q0 3.671875 0.59375 6.953125q0.609375 3.28125 1.75 6.015625q1.171875 2.734375 2.859375 5.0q1.703125 2.265625 3.890625 3.875q2.390625 1.71875 5.375 2.640625q2.984375 0.921875 6.5 0.921875q4.453125 0 8.125 -1.3125q3.671875 -1.3125 6.328125 -3.734375q2.65625 -2.421875 4.234375 -5.859375q1.59375 -3.4375 1.859375 -7.734375zm27.820312 -3.4375l10.703125 21.25l11.75 0l0 -0.515625l-12.21875 -23.46875q2.34375 -1.0625 4.234375 -2.5q1.890625 -1.453125 3.265625 -3.40625q1.328125 -1.90625 2.046875 -4.34375q0.71875 -2.453125 0.71875 -5.5q0 -4.21875 -1.46875 -7.421875q-1.453125 -3.203125 -4.15625 -5.34375q-2.734375 -2.15625 -6.5625 -3.265625q-3.828125 -1.109375 -8.546875 -1.109375l-19.0625 0l0 56.875l10.96875 0l0 -21.25l8.328125 0zm-8.328125 -8.90625l0 -17.8125l8.09375 0q2.265625 0 4.015625 0.546875q1.765625 0.546875 2.96875 1.5625q1.375 1.125 2.046875 2.875q0.6875 1.734375 0.6875 4.0q0 1.875 -0.53125 3.40625q-0.515625 1.515625 -1.53125 2.609375q-1.21875 1.359375 -3.15625 2.09375q-1.921875 0.71875 -4.46875 0.71875l-8.125 0zm74.92969 -26.71875l-10.90625 0l-0.03125 37.6875q-0.046875 2.78125 -0.59375 4.890625q-0.546875 2.109375 -1.640625 3.515625q-1.015625 1.359375 -2.5625 2.046875q-1.53125 0.6875 -3.53125 0.6875q-1.828125 0 -3.234375 -0.640625q-1.40625 -0.65625 -2.390625 -1.9375q-1.046875 -1.40625 -1.578125 -3.546875q-0.53125 -2.15625 -0.5625 -5.015625l-0.046875 -37.6875l-10.96875 0l-0.046875 37.6875q0 4.765625 1.34375 8.5q1.359375 3.734375 3.8125 6.265625q2.46875 2.546875 5.921875 3.875q3.453125 1.328125 7.75 1.328125q4.578125 0 8.140625 -1.328125q3.578125 -1.328125 6.078125 -3.90625q2.46875 -2.546875 3.765625 -6.25q1.3125 -3.71875 1.3125 -8.484375l-0.03125 -37.6875zm9.8828125 56.875l15.26561 0q3.796875 0 7.125 -0.9375q3.34375 -0.9375 6.125 -2.703125q2.375 -1.484375 4.359375 -3.6875q2.0 -2.203125 3.484375 -4.828125q1.5625 -2.921875 2.421875 -6.4375q0.859375 -3.515625 0.859375 -7.46875l0 -4.6875q0 -4.09375 -0.921875 -7.71875q-0.90625 -3.640625 -2.59375 -6.65625q-1.4375 -2.453125 -3.375 -4.546875q-1.9375 -2.09375 -4.390625 -3.53125q-2.8125 -1.765625 -6.25 -2.71875q-3.4375 -0.953125 -7.390625 -0.953125l-14.718735 0l0 56.875zm11.04686 -47.96875l3.671875 0q2.0 0 3.6875 0.453125q1.703125 0.4375 3.109375 1.265625q1.84375 1.09375 3.21875 2.8125q1.390625 1.71875 2.25 3.90625q0.703125 1.828125 1.078125 4.046875q0.375 2.203125 0.375 4.65625l0 4.765625q0 2.625 -0.375 4.875q-0.375 2.234375 -1.078125 4.078125q-0.859375 2.109375 -2.046875 3.6875q-1.1875 1.578125 -2.671875 2.59375q-1.453125 0.984375 -3.21875 1.5q-1.75 0.5 -3.78125 0.5l-4.21875 0l0 -39.140625z" fill-rule="nonzero"/></g></svg>